# Blender v2.91.0 OBJ File: ''
# www.blender.org
mtllib Container1.mtl
o Cube
v -1.017904 -4.901052 -0.969721
v -0.969721 -4.901052 -1.017904
v -1.011449 -4.901052 -0.993812
v -0.993812 -4.901052 -1.011449
v -0.969721 -4.901052 1.017904
v -1.017904 -4.901052 0.969721
v -0.993812 -4.901052 1.011449
v -1.011449 -4.901052 0.993812
v 0.969721 -4.901052 -1.017904
v 1.017904 -4.901052 -0.969721
v 0.993812 -4.901052 -1.011449
v 1.011449 -4.901052 -0.993812
v 1.017904 4.901052 -0.969721
v 0.969721 4.901052 -1.017904
v 1.011449 4.901052 -0.993812
v 0.993812 4.901052 -1.011449
v -1.017904 4.901052 0.969721
v -0.969721 4.901052 1.017904
v -1.011449 4.901052 0.993812
v -0.993812 4.901052 1.011449
v 0.969721 4.901052 1.017904
v 1.017904 4.901052 0.969721
v 0.993812 4.901052 1.011449
v 1.011449 4.901052 0.993812
v 1.017904 -4.901052 0.969721
v 0.969721 -4.901052 1.017904
v 1.011449 -4.901052 0.993812
v 0.993812 -4.901052 1.011449
v -0.969721 4.901052 -1.017904
v -1.017904 4.901052 -0.969721
v -0.993812 4.901052 -1.011449
v -1.011449 4.901052 -0.993812
v 1.017904 4.865685 -0.969721
v 1.017904 -4.865685 -0.969721
v 1.011449 -4.865685 -0.993812
v 1.011449 4.865685 -0.993812
v 0.993812 -4.865685 -1.011449
v 0.993812 4.865685 -1.011449
v 0.969721 -4.865685 -1.017904
v 0.969721 4.865685 -1.017904
v -0.969721 -4.865685 1.017904
v -0.969721 4.865685 1.017904
v -0.993812 4.865685 1.011449
v -0.993812 -4.865685 1.011449
v -1.011449 4.865685 0.993812
v -1.011449 -4.865685 0.993812
v -1.017904 4.865685 0.969721
v -1.017904 -4.865685 0.969721
v 0.969721 4.865685 1.017904
v 0.969721 -4.865685 1.017904
v 0.993812 -4.865685 1.011449
v 0.993812 4.865685 1.011449
v 1.011449 -4.865685 0.993812
v 1.011449 4.865685 0.993812
v 1.017904 -4.865685 0.969721
v 1.017904 4.865685 0.969721
v -0.969721 4.865685 -1.017904
v -0.969721 -4.865685 -1.017904
v -0.993812 -4.865685 -1.011449
v -0.993812 4.865685 -1.011449
v -1.011449 -4.865685 -0.993812
v -1.011449 4.865685 -0.993812
v -1.017904 -4.865685 -0.969721
v -1.017904 4.865685 -0.969721
v -0.998076 -4.901052 -0.967110
v -0.967110 -4.901052 -0.998076
v -0.994128 -4.901052 -0.983813
v -0.983813 -4.901052 -0.994128
v -0.967110 -4.901052 0.998076
v -0.998076 -4.901052 0.967110
v -0.983813 -4.901052 0.994128
v -0.994128 -4.901052 0.983813
v 0.967110 -4.901052 -0.998076
v 0.998076 -4.901052 -0.967110
v 0.983813 -4.901052 -0.994128
v 0.994128 -4.901052 -0.983813
v 0.998076 4.901052 -0.967110
v 0.967110 4.901052 -0.998076
v 0.994128 4.901052 -0.983813
v 0.983813 4.901052 -0.994128
v -0.998076 4.901052 0.967110
v -0.967110 4.901052 0.998076
v -0.994128 4.901052 0.983813
v -0.983813 4.901052 0.994128
v 0.967110 4.901052 0.998076
v 0.998076 4.901052 0.967110
v 0.983813 4.901052 0.994128
v 0.994128 4.901052 0.983813
v 0.998076 -4.901052 0.967110
v 0.967110 -4.901052 0.998076
v 0.994128 -4.901052 0.983813
v 0.983813 -4.901052 0.994128
v -0.967110 4.901052 -0.998076
v -0.998076 4.901052 -0.967110
v -0.983813 4.901052 -0.994128
v -0.994128 4.901052 -0.983813
v 0.998076 4.865685 -0.967111
v 0.998076 -4.865685 -0.967111
v 0.994128 -4.865685 -0.983813
v 0.994128 4.865685 -0.983813
v 0.983813 -4.865685 -0.994128
v 0.983813 4.865685 -0.994128
v 0.967110 -4.865685 -0.998076
v 0.967110 4.865685 -0.998076
v -0.967110 -4.865685 0.998076
v -0.967110 4.865685 0.998076
v -0.983813 4.865685 0.994128
v -0.983813 -4.865685 0.994128
v -0.994128 4.865685 0.983813
v -0.994128 -4.865685 0.983813
v -0.998076 4.865685 0.967111
v -0.998076 -4.865685 0.967111
v 0.967110 4.865685 0.998076
v 0.967110 -4.865685 0.998076
v 0.983813 -4.865685 0.994128
v 0.983813 4.865685 0.994128
v 0.994128 -4.865685 0.983813
v 0.994128 4.865685 0.983813
v 0.998076 -4.865685 0.967111
v 0.998076 4.865685 0.967111
v -0.967110 4.865685 -0.998076
v -0.967110 -4.865685 -0.998076
v -0.983813 -4.865685 -0.994128
v -0.983813 4.865685 -0.994128
v -0.994128 -4.865685 -0.983813
v -0.994128 4.865685 -0.983813
v -0.998076 -4.865685 -0.967111
v -0.998076 4.865685 -0.967111
vt 0.129583 0.612995
vt 0.129583 0.615215
vt 0.251309 0.615215
vt 0.251309 0.612995
vt 0.629771 0.612995
vt 0.629771 0.615215
vt 0.751497 0.615215
vt 0.751497 0.612995
vt 0.505021 0.612995
vt 0.505021 0.615215
vt 0.626747 0.615215
vt 0.626747 0.612995
vt 0.129583 0.002220
vt 0.129583 0.000000
vt 0.128071 0.000000
vt 0.128071 0.002220
vt 0.126964 0.000000
vt 0.126964 0.002220
vt 0.753009 0.002220
vt 0.753009 0.000000
vt 0.751497 0.000000
vt 0.751497 0.002220
vt 0.628259 0.615215
vt 0.628259 0.612995
vt 0.000000 0.612995
vt 0.000000 0.615215
vt 0.001107 0.615215
vt 0.001107 0.612995
vt 0.002619 0.615215
vt 0.002619 0.612995
vt 0.505021 0.002220
vt 0.505021 0.000000
vt 0.503509 0.000000
vt 0.503509 0.002220
vt 0.253928 0.002220
vt 0.253928 0.000000
vt 0.252822 0.000000
vt 0.252822 0.002220
vt 0.251310 0.000000
vt 0.251310 0.002220
vt 0.629771 0.002220
vt 0.629771 0.000000
vt 0.628259 0.000000
vt 0.628259 0.002220
vt 0.126964 0.002220
vt 0.126964 0.000000
vt 0.125857 0.000000
vt 0.125857 0.002220
vt 0.124345 0.000000
vt 0.124345 0.002220
vt 0.124345 0.615215
vt 0.124345 0.612995
vt 0.002619 0.000000
vt 0.002619 0.002220
vt 0.125857 0.615215
vt 0.125857 0.612995
vt 0.126964 0.615215
vt 0.126964 0.612995
vt 0.628259 0.612995
vt 0.628259 0.615215
vt 0.252822 0.615215
vt 0.252822 0.612995
vt 0.253928 0.615215
vt 0.253928 0.612995
vt 0.503509 0.612995
vt 0.503509 0.615215
vt 0.001107 0.000000
vt 0.001107 0.002220
vt 0.000000 0.000000
vt 0.000000 0.002220
vt 0.626747 0.000000
vt 0.626747 0.002220
vt 0.628259 0.002220
vt 0.628259 0.000000
vt 0.753009 0.615215
vt 0.753009 0.612995
vt 0.128071 0.615215
vt 0.128071 0.612995
vt 0.126964 0.612995
vt 0.126964 0.615215
vt 0.377023 0.612995
vt 0.255624 0.612995
vt 0.255624 0.615215
vt 0.377023 0.615215
vt 0.998952 0.612995
vt 0.877553 0.612995
vt 0.877553 0.615215
vt 0.998952 0.615215
vt 0.875456 0.612995
vt 0.754058 0.612995
vt 0.754058 0.615215
vt 0.875456 0.615215
vt 0.377023 0.002220
vt 0.378071 0.002220
vt 0.378071 0.000000
vt 0.377023 0.000000
vt 0.378719 0.002220
vt 0.378719 0.000000
vt 0.876505 0.002220
vt 0.877553 0.002220
vt 0.877553 0.000000
vt 0.876505 0.000000
vt 0.753009 0.612995
vt 0.753009 0.615215
vt 0.503509 0.612995
vt 0.502861 0.612995
vt 0.502861 0.615215
vt 0.503509 0.615215
vt 0.501813 0.612995
vt 0.501813 0.615215
vt 0.875456 0.002220
vt 0.876505 0.002220
vt 0.876505 0.000000
vt 0.875456 0.000000
vt 0.253929 0.002220
vt 0.254576 0.002220
vt 0.254576 0.000000
vt 0.253929 0.000000
vt 0.255624 0.002220
vt 0.255624 0.000000
vt 0.998952 0.002220
vt 1.000000 0.002220
vt 1.000000 0.000000
vt 0.998952 0.000000
vt 0.378719 0.002220
vt 0.379366 0.002220
vt 0.379366 0.000000
vt 0.378719 0.000000
vt 0.380414 0.002220
vt 0.380414 0.000000
vt 0.380414 0.612995
vt 0.380414 0.615215
vt 0.501813 0.000000
vt 0.501813 0.002220
vt 0.379366 0.615215
vt 0.379366 0.612995
vt 0.378719 0.615215
vt 0.378719 0.612995
vt 1.000000 0.615215
vt 1.000000 0.612995
vt 0.254576 0.615215
vt 0.254576 0.612995
vt 0.253929 0.615215
vt 0.253929 0.612995
vt 0.876505 0.615215
vt 0.876505 0.612995
vt 0.502861 0.000000
vt 0.502861 0.002220
vt 0.503509 0.000000
vt 0.503509 0.002220
vt 0.754058 0.000000
vt 0.753010 0.000000
vt 0.753010 0.002220
vt 0.754058 0.002220
vt 0.876505 0.615215
vt 0.876505 0.612995
vt 0.378071 0.615215
vt 0.378719 0.615215
vt 0.378719 0.612995
vt 0.378071 0.612995
vt 0.130799 0.615215
vt 0.129287 0.615620
vt 0.129914 0.616707
vt 0.130962 0.616459
vt 0.001512 0.742584
vt 0.003024 0.742989
vt 0.003188 0.741745
vt 0.002140 0.741497
vt 0.128180 0.616727
vt 0.129267 0.617355
vt 0.000405 0.741477
vt 0.001492 0.740850
vt 0.127774 0.618239
vt 0.129019 0.618403
vt 0.000000 0.739965
vt 0.001245 0.739801
vt 0.127775 0.618239
vt 0.127369 0.616727
vt 0.126282 0.617355
vt 0.126530 0.618403
vt 0.255144 0.741477
vt 0.255549 0.739965
vt 0.254305 0.739801
vt 0.254057 0.740850
vt 0.126262 0.615620
vt 0.125635 0.616707
vt 0.254037 0.742584
vt 0.253409 0.741497
vt 0.124750 0.615215
vt 0.124587 0.616459
vt 0.252525 0.742989
vt 0.252361 0.741745
vt 0.255549 0.618239
vt 0.255144 0.616727
vt 0.254057 0.617355
vt 0.254305 0.618403
vt 0.127369 0.741477
vt 0.127775 0.739965
vt 0.126530 0.739801
vt 0.126282 0.740850
vt 0.254037 0.615620
vt 0.253409 0.616707
vt 0.126262 0.742584
vt 0.125635 0.741497
vt 0.252525 0.615215
vt 0.252361 0.616459
vt 0.124750 0.742989
vt 0.124587 0.741745
vt 0.127774 0.739965
vt 0.128180 0.741477
vt 0.129267 0.740850
vt 0.129019 0.739801
vt 0.000405 0.616727
vt 0.000000 0.618239
vt 0.001245 0.618403
vt 0.001492 0.617355
vt 0.129287 0.742584
vt 0.129914 0.741497
vt 0.001512 0.615620
vt 0.002140 0.616707
vt 0.130799 0.742989
vt 0.130962 0.741745
vt 0.003024 0.615215
vt 0.003188 0.616459
vn 0.9914 0.0000 -0.1305
vn 0.7280 0.6789 -0.0958
vn 0.7280 0.6789 0.0958
vn 0.9914 0.0000 0.1305
vn -0.1305 0.0000 -0.9914
vn -0.0958 0.6789 -0.7280
vn 0.0958 0.6789 -0.7280
vn 0.1305 0.0000 -0.9914
vn 0.1305 0.0000 0.9914
vn 0.0958 0.6789 0.7280
vn -0.0958 0.6789 0.7280
vn -0.1305 0.0000 0.9914
vn 0.7280 -0.6789 -0.0958
vn 0.6557 -0.6532 -0.3786
vn 0.8660 0.0000 -0.5000
vn 0.3786 -0.6532 -0.6557
vn 0.5000 0.0000 -0.8660
vn 0.0958 -0.6789 -0.7280
vn -0.3786 0.6532 0.6557
vn -0.5000 0.0000 0.8660
vn -0.6557 0.6532 0.3786
vn -0.8660 0.0000 0.5000
vn -0.7280 0.6789 0.0958
vn -0.9914 0.0000 0.1305
vn 0.0958 -0.6789 0.7280
vn 0.3786 -0.6532 0.6557
vn 0.5000 0.0000 0.8660
vn 0.6557 -0.6532 0.3786
vn 0.8660 0.0000 0.5000
vn 0.7280 -0.6789 0.0958
vn -0.0958 -0.6789 -0.7280
vn -0.3786 -0.6532 -0.6557
vn -0.5000 0.0000 -0.8660
vn -0.6557 -0.6532 -0.3786
vn -0.8660 0.0000 -0.5000
vn -0.7280 -0.6789 -0.0958
vn -0.9914 0.0000 -0.1305
vn -0.7280 0.6789 -0.0958
vn -0.7280 -0.6789 0.0958
vn -0.6557 0.6532 -0.3786
vn -0.3786 0.6532 -0.6557
vn 0.6557 0.6532 0.3786
vn 0.3786 0.6532 0.6557
vn -0.6557 -0.6532 0.3786
vn -0.3786 -0.6532 0.6557
vn -0.0958 -0.6789 0.7280
vn 0.3786 0.6532 -0.6557
vn 0.6557 0.6532 -0.3786
vn -0.9933 0.0000 0.1158
vn -0.9933 0.0000 -0.1158
vn -0.6744 0.7341 -0.0786
vn -0.6744 0.7341 0.0786
vn 0.1158 0.0000 0.9933
vn -0.1158 0.0000 0.9933
vn -0.0786 0.7341 0.6744
vn 0.0786 0.7341 0.6744
vn -0.1158 0.0000 -0.9933
vn 0.1158 0.0000 -0.9933
vn 0.0786 0.7341 -0.6744
vn -0.0786 0.7341 -0.6744
vn -0.8733 0.0000 0.4871
vn -0.5529 -0.7740 0.3084
vn -0.6744 -0.7341 0.0786
vn -0.4871 0.0000 0.8733
vn -0.3084 -0.7740 0.5529
vn -0.0786 -0.7341 0.6744
vn 0.4871 0.0000 -0.8733
vn 0.3084 0.7740 -0.5529
vn 0.8733 0.0000 -0.4871
vn 0.5529 0.7740 -0.3084
vn 0.9933 0.0000 -0.1158
vn 0.6744 0.7341 -0.0786
vn -0.4871 0.0000 -0.8733
vn -0.3084 -0.7740 -0.5529
vn -0.0786 -0.7341 -0.6744
vn -0.8733 0.0000 -0.4871
vn -0.5529 -0.7740 -0.3084
vn -0.6744 -0.7341 -0.0786
vn 0.4871 0.0000 0.8733
vn 0.3084 -0.7740 0.5529
vn 0.0786 -0.7341 0.6744
vn 0.8733 0.0000 0.4871
vn 0.5529 -0.7740 0.3084
vn 0.9933 0.0000 0.1158
vn 0.6744 -0.7341 0.0786
vn 0.6744 0.7341 0.0786
vn 0.6744 -0.7341 -0.0786
vn 0.5529 0.7740 0.3084
vn 0.3084 0.7740 0.5529
vn -0.5529 0.7740 -0.3084
vn -0.3084 0.7740 -0.5529
vn 0.5529 -0.7740 -0.3084
vn 0.3084 -0.7740 -0.5529
vn 0.0786 -0.7341 -0.6744
vn -0.3084 0.7740 0.5529
vn -0.5529 0.7740 0.3084
usemtl Material
s 1
f 33/1/1 13/2/2 22/3/3 56/4/4
f 57/5/5 29/6/6 14/7/7 40/8/8
f 49/9/9 21/10/10 18/11/11 42/12/12
f 34/13/1 10/14/13 12/15/14 35/16/15
f 35/16/15 12/15/14 11/17/16 37/18/17
f 37/19/17 11/20/16 9/21/18 39/22/8
f 42/12/12 18/11/11 20/23/19 43/24/20
f 43/25/20 20/26/19 19/27/21 45/28/22
f 45/28/22 19/27/21 17/29/23 47/30/24
f 50/31/9 26/32/25 28/33/26 51/34/27
f 51/35/27 28/36/26 27/37/28 53/38/29
f 53/38/29 27/37/28 25/39/30 55/40/4
f 58/41/5 2/42/31 4/43/32 59/44/33
f 59/45/33 4/46/32 3/47/34 61/48/35
f 61/48/35 3/47/34 1/49/36 63/50/37
f 47/30/24 17/29/23 30/51/38 64/52/37
f 6/53/39 48/54/24 63/50/37 1/49/36
f 48/54/24 47/30/24 64/52/37 63/50/37
f 32/55/40 62/56/35 64/52/37 30/51/38
f 62/56/35 61/48/35 63/50/37 64/52/37
f 31/57/41 60/58/33 62/56/35 32/55/40
f 60/58/33 59/45/33 61/48/35 62/56/35
f 29/6/6 57/5/5 60/59/33 31/60/41
f 57/5/5 58/41/5 59/44/33 60/59/33
f 24/61/42 54/62/29 56/4/4 22/3/3
f 54/62/29 53/38/29 55/40/4 56/4/4
f 23/63/43 52/64/27 54/62/29 24/61/42
f 52/64/27 51/35/27 53/38/29 54/62/29
f 21/10/10 49/9/9 52/65/27 23/66/43
f 49/9/9 50/31/9 51/34/27 52/65/27
f 8/67/44 46/68/22 48/54/24 6/53/39
f 46/68/22 45/28/22 47/30/24 48/54/24
f 7/69/45 44/70/20 46/68/22 8/67/44
f 44/70/20 43/25/20 45/28/22 46/68/22
f 5/71/46 41/72/12 44/73/20 7/74/45
f 41/72/12 42/12/12 43/24/20 44/73/20
f 16/75/47 38/76/17 40/8/8 14/7/7
f 38/76/17 37/19/17 39/22/8 40/8/8
f 15/77/48 36/78/15 38/79/17 16/80/47
f 36/78/15 35/16/15 37/18/17 38/79/17
f 13/2/2 33/1/1 36/78/15 15/77/48
f 33/1/1 34/13/1 35/16/15 36/78/15
f 26/32/25 50/31/9 41/72/12 5/71/46
f 50/31/9 49/9/9 42/12/12 41/72/12
f 2/42/31 58/41/5 39/22/8 9/21/18
f 58/41/5 57/5/5 40/8/8 39/22/8
f 10/14/13 34/13/1 55/40/4 25/39/30
f 34/13/1 33/1/1 56/4/4 55/40/4
f 97/81/49 120/82/50 86/83/51 77/84/52
f 121/85/53 104/86/54 78/87/55 93/88/56
f 113/89/57 106/90/58 82/91/59 85/92/60
f 98/93/49 99/94/61 76/95/62 74/96/63
f 99/94/61 101/97/64 75/98/65 76/95/62
f 101/99/64 103/100/54 73/101/66 75/102/65
f 106/90/58 107/103/67 84/104/68 82/91/59
f 107/105/67 109/106/69 83/107/70 84/108/68
f 109/106/69 111/109/71 81/110/72 83/107/70
f 114/111/57 115/112/73 92/113/74 90/114/75
f 115/115/73 117/116/76 91/117/77 92/118/74
f 117/116/76 119/119/50 89/120/78 91/117/77
f 122/121/53 123/122/79 68/123/80 66/124/81
f 123/125/79 125/126/82 67/127/83 68/128/80
f 125/126/82 127/129/84 65/130/85 67/127/83
f 111/109/71 128/131/84 94/132/86 81/110/72
f 70/133/87 65/130/85 127/129/84 112/134/71
f 112/134/71 127/129/84 128/131/84 111/109/71
f 96/135/88 94/132/86 128/131/84 126/136/82
f 126/136/82 128/131/84 127/129/84 125/126/82
f 95/137/89 96/135/88 126/136/82 124/138/79
f 124/138/79 126/136/82 125/126/82 123/125/79
f 93/88/56 95/139/89 124/140/79 121/85/53
f 121/85/53 124/140/79 123/122/79 122/121/53
f 88/141/90 86/83/51 120/82/50 118/142/76
f 118/142/76 120/82/50 119/119/50 117/116/76
f 87/143/91 88/141/90 118/142/76 116/144/73
f 116/144/73 118/142/76 117/116/76 115/115/73
f 85/92/60 87/145/91 116/146/73 113/89/57
f 113/89/57 116/146/73 115/112/73 114/111/57
f 72/147/92 70/133/87 112/134/71 110/148/69
f 110/148/69 112/134/71 111/109/71 109/106/69
f 71/149/93 72/147/92 110/148/69 108/150/67
f 108/150/67 110/148/69 109/106/69 107/105/67
f 69/151/94 71/152/93 108/153/67 105/154/58
f 105/154/58 108/153/67 107/103/67 106/90/58
f 80/155/95 78/87/55 104/86/54 102/156/64
f 102/156/64 104/86/54 103/100/54 101/99/64
f 79/157/96 80/158/95 102/159/64 100/160/61
f 100/160/61 102/159/64 101/97/64 99/94/61
f 77/84/52 79/157/96 100/160/61 97/81/49
f 97/81/49 100/160/61 99/94/61 98/93/49
f 90/114/75 69/151/94 105/154/58 114/111/57
f 114/111/57 105/154/58 106/90/58 113/89/57
f 66/124/81 73/101/66 103/100/54 122/121/53
f 122/121/53 103/100/54 104/86/54 121/85/53
f 74/96/63 89/120/78 119/119/50 98/93/49
f 98/93/49 119/119/50 120/82/50 97/81/49
f 13/161/2 15/162/48 79/163/96 77/164/52
f 12/165/14 10/166/13 74/167/63 76/168/62
f 15/162/48 16/169/47 80/170/95 79/163/96
f 11/171/16 12/165/14 76/168/62 75/172/65
f 16/169/47 14/173/7 78/174/55 80/170/95
f 9/175/18 11/171/16 75/172/65 73/176/66
f 5/177/46 7/178/45 71/179/93 69/180/94
f 20/181/19 18/182/11 82/183/59 84/184/68
f 7/178/45 8/185/44 72/186/92 71/179/93
f 19/187/21 20/181/19 84/184/68 83/188/70
f 8/185/44 6/189/39 70/190/87 72/186/92
f 17/191/23 19/187/21 83/188/70 81/192/72
f 21/193/10 23/194/43 87/195/91 85/196/60
f 28/197/26 26/198/25 90/199/75 92/200/74
f 23/194/43 24/201/42 88/202/90 87/195/91
f 27/203/28 28/197/26 92/200/74 91/204/77
f 24/201/42 22/205/3 86/206/51 88/202/90
f 25/207/30 27/203/28 91/204/77 89/208/78
f 29/209/6 31/210/41 95/211/89 93/212/56
f 4/213/32 2/214/31 66/215/81 68/216/80
f 31/210/41 32/217/40 96/218/88 95/211/89
f 3/219/34 4/213/32 68/216/80 67/220/83
f 32/217/40 30/221/38 94/222/86 96/218/88
f 1/223/36 3/219/34 67/220/83 65/224/85
f 6/189/39 1/223/36 65/224/85 70/190/87
f 30/221/38 17/191/23 81/192/72 94/222/86
f 2/214/31 9/175/18 73/176/66 66/215/81
f 14/173/7 29/209/6 93/212/56 78/174/55
f 26/198/25 5/177/46 69/180/94 90/199/75
f 18/182/11 21/193/10 85/196/60 82/183/59
f 10/166/13 25/207/30 89/208/78 74/167/63
f 22/205/3 13/161/2 77/164/52 86/206/51
